<svg width="45" height="45" viewBox="0 0 45 45" fill="none" xmlns="http://www.w3.org/2000/svg">
<path fill-rule="evenodd" clip-rule="evenodd" d="M7.5 43C10.5376 43 13 40.5376 13 37.5C13 34.4624 10.5376 32 7.5 32C4.46243 32 2 34.4624 2 37.5C2 40.5376 4.46243 43 7.5 43ZM7.5 45C11.6421 45 15 41.6421 15 37.5C15 33.3579 11.6421 30 7.5 30C3.35786 30 0 33.3579 0 37.5C0 41.6421 3.35786 45 7.5 45Z" fill="#1D3E6F"/>
<path fill-rule="evenodd" clip-rule="evenodd" d="M43 2H17V28H43V2ZM15 0V30H45V0H15Z" fill="#1D3E6F"/>
</svg>
