<svg width="45" height="45" viewBox="0 0 45 45" fill="none" xmlns="http://www.w3.org/2000/svg">
<path d="M21.9739 18L23.9847 18L23.9847 45L21.9739 45L21.9739 18Z" fill="#1D3E6F"/>
<path fill-rule="evenodd" clip-rule="evenodd" d="M23.0027 2C19.6711 2 16.9702 4.6863 16.9702 8C16.9702 11.3137 19.6711 14 23.0027 14C26.3343 14 29.0352 11.3137 29.0352 8C29.0352 4.6863 26.3343 2 23.0027 2ZM23.0027 3.82552e-06C18.5605 3.43717e-06 14.9594 3.58173 14.9594 8C14.9594 12.4183 18.5605 16 23.0027 16C27.4449 16 31.046 12.4183 31.046 8C31.046 3.58173 27.4449 4.21387e-06 23.0027 3.82552e-06Z" fill="#1D3E6F"/>
<path fill-rule="evenodd" clip-rule="evenodd" d="M30.2696 16.5231L45 43.5231L43.2326 44.4769L28.5022 17.4769L30.2696 16.5231Z" fill="#1D3E6F"/>
<path fill-rule="evenodd" clip-rule="evenodd" d="M14.7304 16.5231L2.05834e-08 43.5231L1.76738 44.4769L16.4978 17.4769L14.7304 16.5231Z" fill="#1D3E6F"/>
</svg>
