<svg width="16" height="16" viewBox="0 0 16 16" fill="none" xmlns="http://www.w3.org/2000/svg">
<path d="M8 0.000244141C10.1727 0.000244141 10.4453 0.00957748 11.2993 0.0489108C14.2073 0.182244 15.8213 1.79958 15.952 4.70224C15.9907 5.55558 16 5.82758 16 8.00024C16 10.1729 15.9907 10.4456 15.9513 11.2989C15.82 14.2069 14.2013 15.8189 11.2987 15.9522C10.4453 15.9909 10.1727 16.0002 8 16.0002C5.82733 16.0002 5.55533 15.9909 4.70133 15.9522C1.79333 15.8189 0.181333 14.2042 0.048 11.2989C0.00933333 10.4456 0 10.1729 0 8.00024C0 5.82758 0.00933331 5.55558 0.0486666 4.70158C0.182 1.79358 1.79667 0.181577 4.702 0.0482441C5.55533 0.00957748 5.82733 0.000244141 8 0.000244141ZM8 3.19557C5.34659 3.19557 3.19532 5.34683 3.19532 8.00024C3.19532 10.6537 5.34659 12.8057 8 12.8057C10.6534 12.8057 12.8047 10.6544 12.8047 8.00024C12.8047 5.34683 10.6534 3.19557 8 3.19557ZM12.9949 1.88329C12.3743 1.88329 11.8713 2.38621 11.8713 3.00609C11.8713 3.62597 12.3743 4.1289 12.9949 4.1289C13.6148 4.1289 14.117 3.62597 14.117 3.00609C14.117 2.38621 13.6148 1.88329 12.9949 1.88329ZM8 11.1192C6.27758 11.1192 4.88109 9.72344 4.88109 8.00024C4.88109 6.27783 6.27758 4.88134 8 4.88134C9.72242 4.88134 11.1189 6.27783 11.1189 8.00024C11.1189 9.72344 9.72242 11.1192 8 11.1192Z" fill="#1D3E6F"/>
</svg>
