<svg width="500" height="70" viewBox="0 0 500 70" fill="none" xmlns="http://www.w3.org/2000/svg">
<path d="M22.0186 2.40829L39.4635 41.0401H34.001L28.7317 29.2584H10.7248L5.45547 41.0401H0L17.4414 2.40829H22.0186ZM26.5854 24.4633L19.7317 9.16708L12.8676 24.4633H26.5854Z" fill="#1D3E6F"/>
<path d="M48.0466 40.4104C46.2862 39.6722 44.7114 38.5442 43.4377 37.1093C42.1213 35.6486 41.1252 33.9222 40.515 32.0437C39.8205 29.9341 39.4786 27.722 39.5033 25.4984V22.5957C39.5033 18.238 39.6192 15.6199 40.1813 12.9911C40.6766 10.6611 41.2738 8.80419 42.5665 6.98288C43.7574 5.30174 45.3344 3.93927 47.1614 3.01299C51.3768 0.743466 57.8405 0.40197 61.276 0.167191L65.4528 0V4.70269H64.8205C60.6753 4.70269 50.0665 5.07976 46.9506 8.91448C46.0978 9.88867 45.4861 11.0543 45.166 12.3152C44.7231 14.0201 44.464 15.7687 44.3932 17.5301C45.5792 15.8325 47.2163 14.5102 49.1145 13.7168C50.8965 12.9689 52.8061 12.5822 54.7351 12.5784C56.7576 12.5547 58.7644 12.9418 60.6367 13.7168C62.303 14.4031 63.7998 15.4524 65.0207 16.7902C66.2192 18.1039 67.1715 19.6275 67.831 21.2866C68.4612 23.018 68.7847 24.8484 68.7865 26.6936C68.8118 28.6798 68.4538 30.6518 67.7327 32.4991C67.0443 34.2641 66.0121 35.8707 64.6976 37.2231C63.3838 38.6126 61.7938 39.7038 60.0325 40.4246C56.197 42.0182 51.8961 42.0182 48.0606 40.4246L48.0466 40.4104ZM57.995 36.2555C59.1581 35.7774 60.2106 35.0603 61.0863 34.1496C61.9646 33.1916 62.6517 32.0706 63.1097 30.8485C63.6255 29.5266 63.8785 28.1147 63.8545 26.6936C63.8764 25.3525 63.6278 24.021 63.1238 22.7807C62.67 21.6372 62.002 20.5936 61.1566 19.7072C60.2606 18.8502 59.2114 18.1741 58.0653 17.7151C56.8291 17.2507 55.5195 17.0192 54.2011 17.0321C52.8352 17.0029 51.4776 17.2546 50.2105 17.772C49.0615 18.2512 48.0126 18.9464 47.1192 19.821C46.2554 20.6924 45.5848 21.7402 45.152 22.8945C44.6515 24.101 44.4027 25.3993 44.4213 26.7079C44.3878 28.1282 44.6314 29.5413 45.1379 30.8663C45.5409 32.0864 46.2025 33.2026 47.0763 34.1366C47.9501 35.0706 49.015 35.7999 50.1965 36.2733C51.4175 36.8025 52.7324 37.0737 54.0606 37.0701C55.4176 37.0718 56.7609 36.7947 58.0091 36.2555H57.995Z" fill="#1D3E6F"/>
<path d="M80.3111 40.4104C78.5666 39.6887 76.9951 38.5971 75.7022 37.2089C74.4008 35.8675 73.3699 34.2823 72.6671 32.5418C71.1681 28.8597 71.1681 24.7268 72.6671 21.0447C73.3828 19.2942 74.4117 17.6926 75.7022 16.3207C77.0253 14.9686 78.5891 13.8823 80.3111 13.1192C82.1864 12.3547 84.1911 11.9681 86.2127 11.9808C87.9109 11.9817 89.5985 12.2506 91.215 12.7777C92.7025 13.2788 94.1053 14.0083 95.3742 14.9405C96.6085 15.8701 97.6777 17.0057 98.5358 18.2985C99.3797 19.6095 100.006 21.0514 100.391 22.5672H95.2056C94.5945 20.768 93.4329 19.2129 91.8895 18.1278C90.2065 17.0069 88.2265 16.4312 86.2127 16.4772C84.8429 16.4662 83.4852 16.7373 82.222 17.274C81.056 17.7726 80.0037 18.5088 79.1307 19.4368C78.2745 20.4012 77.6069 21.5214 77.1635 22.738C76.1892 25.3417 76.1892 28.2163 77.1635 30.82C77.5943 32.0258 78.2637 33.1298 79.1307 34.0643C79.9859 35.0271 81.0418 35.7853 82.222 36.284C83.4852 36.8207 84.8429 37.0918 86.2127 37.0808C88.2358 37.1353 90.2237 36.5373 91.8895 35.3733C93.442 34.3229 94.6079 32.7821 95.2056 30.9908H100.394C100.01 32.5066 99.3832 33.9485 98.5393 35.2595C97.695 36.5475 96.6231 37.6666 95.3777 38.5606C94.1266 39.5489 92.7191 40.3151 91.215 40.8266C89.5985 41.3537 87.9109 41.6225 86.2127 41.6234C84.1835 41.6398 82.1733 41.2267 80.3111 40.4104Z" fill="#1D3E6F"/>
<path d="M111.466 40.4104C109.72 39.7038 108.136 38.6422 106.812 37.2912C105.487 35.9403 104.451 34.3286 103.765 32.5559C103.016 30.7348 102.634 28.7803 102.641 26.8074C102.639 24.8166 103.021 22.8446 103.765 21.002C104.468 19.2615 105.499 17.6762 106.801 16.3349C108.144 14.9818 109.727 13.8958 111.466 13.1333C115.238 11.6155 119.44 11.6155 123.213 13.1333C124.952 13.8958 126.534 14.9818 127.878 16.3349C129.196 17.6736 130.246 19.2586 130.969 21.002C131.69 22.8492 132.048 24.8213 132.023 26.8074C132.054 28.7756 131.695 30.73 130.969 32.5559C130.262 34.3236 129.212 35.9297 127.881 37.2788C126.55 38.628 124.965 39.6929 123.22 40.4104C121.36 41.1993 119.363 41.6056 117.346 41.6056C115.329 41.6056 113.333 41.1993 111.473 40.4104H111.466ZM121.358 36.2555C122.538 35.7568 123.594 34.9986 124.449 34.0357C125.297 33.0865 125.964 31.9866 126.416 30.7915C126.877 29.5156 127.105 28.1658 127.091 26.8074C127.1 25.4495 126.872 24.1005 126.416 22.8233C125.951 21.6174 125.286 20.501 124.449 19.5222C123.576 18.5941 122.524 17.8579 121.358 17.3594C118.804 16.2956 115.94 16.2918 113.384 17.3487C112.218 17.8472 111.165 18.5834 110.292 19.5115C108.552 21.529 107.593 24.1176 107.594 26.7967C107.571 28.1611 107.819 29.5162 108.325 30.7809C108.756 31.9866 109.425 33.0906 110.292 34.0251C111.148 34.9879 112.203 35.7461 113.384 36.2448C115.941 37.3071 118.808 37.3071 121.365 36.2448L121.358 36.2555Z" fill="#1D3E6F"/>
<path d="M133.698 41.3779C133.32 41.3771 132.944 41.339 132.574 41.2641V36.8815C132.869 36.9474 133.171 36.9855 133.473 36.9954H134.372C134.858 37.015 135.34 36.9168 135.78 36.7088C136.22 36.5009 136.605 36.1893 136.902 35.8001C137.52 35.0602 137.801 33.5804 137.801 31.4176V12.5642H159.496V41.0222H154.663V17.0748H142.635V32.4421C142.635 35.4586 141.904 37.7353 140.499 39.2009C139.797 39.9243 138.956 40.4945 138.028 40.8763C137.1 41.258 136.104 41.4433 135.103 41.4206C134.634 41.4359 134.165 41.4217 133.698 41.3779Z" fill="#1D3E6F"/>
<path d="M184.935 40.638C183.354 40.0432 181.916 39.1115 180.72 37.906C179.466 36.7562 178.453 35.3626 177.741 33.8081C176.942 32.2207 176.428 30.5018 176.224 28.7319H170.828V41.0258H165.994V12.5677H170.828V24.3494H176.266C176.525 22.6241 177.056 20.9522 177.84 19.3977C178.613 17.9478 179.625 16.6425 180.832 15.538C182.064 14.406 183.493 13.5179 185.048 12.9199C186.681 12.2922 188.416 11.9843 190.163 12.0128C192.113 11.9999 194.045 12.3872 195.843 13.1511C197.531 13.8849 199.059 14.9487 200.339 16.2815C201.576 17.6729 202.565 19.2714 203.262 21.0056C203.943 22.8629 204.286 24.8298 204.274 26.811C204.291 28.774 203.948 30.7232 203.262 32.5595C202.591 34.3024 201.599 35.9006 200.339 37.2693C199.077 38.6423 197.546 39.7328 195.843 40.4708C194.045 41.2348 192.113 41.622 190.163 41.6092C188.376 41.6114 186.605 41.2822 184.935 40.638ZM193.876 36.2021C194.981 35.6855 195.974 34.9501 196.795 34.0393C197.61 33.0854 198.24 31.9849 198.653 30.7951C199.113 29.5191 199.342 28.1693 199.328 26.811C199.337 25.4345 199.109 24.0669 198.653 22.7699C198.228 21.5987 197.599 20.5142 196.795 19.5684C195.974 18.6576 194.981 17.9223 193.876 17.4056C192.706 16.8896 191.446 16.6186 190.17 16.6088C188.895 16.599 187.63 16.8507 186.453 17.3487C185.354 17.8512 184.376 18.5891 183.587 19.5115C182.774 20.4665 182.145 21.5668 181.732 22.7557C181.276 24.0526 181.048 25.4202 181.057 26.7967C181.043 28.1551 181.271 29.5049 181.732 30.7809C182.145 31.9698 182.774 33.0701 183.587 34.0251C184.375 34.9526 185.353 35.6954 186.453 36.2021C187.621 36.7283 188.886 37.0001 190.164 37.0001C191.443 37.0001 192.707 36.7283 193.876 36.2021Z" fill="#1D3E6F"/>
<path d="M204.933 17.0748V12.5785H230.141V17.0748H219.757V41.0365H214.913V17.0748H204.933Z" fill="#1D3E6F"/>
<path d="M280.554 24.1075V29.0059H231.795V24.1075H280.554Z" fill="#1D3E6F"/>
<path d="M292.813 7.41335V41.0365H287.755V2.40829H318.766V41.0401H313.652V7.41335H292.813Z" fill="#1D3E6F"/>
<path d="M332.409 40.4104C330.663 39.7038 329.079 38.6422 327.755 37.2912C326.431 35.9403 325.394 34.3286 324.709 32.5559C323.959 30.7348 323.577 28.7803 323.585 26.8074C323.583 24.8166 323.965 22.8446 324.709 21.002C325.412 19.2615 326.443 17.6762 327.744 16.3349C329.088 14.9818 330.67 13.8958 332.409 13.1333C336.181 11.6155 340.384 11.6155 344.156 13.1333C345.895 13.8958 347.477 14.9818 348.821 16.3349C350.14 17.6736 351.19 19.2586 351.912 21.002C352.634 22.8492 352.991 24.8213 352.966 26.8074C352.997 28.7756 352.639 30.73 351.912 32.5559C351.206 34.3233 350.156 35.9291 348.826 37.2783C347.495 38.6274 345.911 39.6925 344.167 40.4104C342.306 41.1993 340.31 41.6056 338.293 41.6056C336.276 41.6056 334.28 41.1993 332.42 40.4104H332.409ZM342.301 36.2555C343.481 35.7568 344.537 34.9986 345.392 34.0357C346.24 33.0865 346.907 31.9866 347.36 30.7915C347.82 29.5156 348.048 28.1658 348.034 26.8074C348.044 25.4495 347.815 24.1005 347.36 22.8233C346.895 21.6174 346.229 20.501 345.392 19.5222C344.52 18.5941 343.467 17.8579 342.301 17.3594C339.744 16.2971 336.877 16.2971 334.32 17.3594C333.154 17.8579 332.102 18.5941 331.229 19.5222C329.488 21.5397 328.529 24.1283 328.531 26.8074C328.507 28.1717 328.756 29.5268 329.261 30.7915C329.692 31.9973 330.362 33.1013 331.229 34.0357C332.084 34.9986 333.14 35.7568 334.32 36.2555C336.877 37.3178 339.744 37.3178 342.301 36.2555Z" fill="#1D3E6F"/>
<path d="M374.552 34.3275L385.685 12.5785H391.534V41.0365H386.693V20.3795L376.253 40.6914H372.838L362.412 20.4151V41.0472H357.578V12.5891H363.417L374.552 34.3275Z" fill="#1D3E6F"/>
<path d="M404.953 40.4104C403.207 39.7038 401.623 38.6422 400.299 37.2912C398.974 35.9403 397.937 34.3286 397.252 32.5559C396.503 30.7348 396.121 28.7803 396.128 26.8074C396.126 24.8166 396.508 22.8446 397.252 21.002C397.955 19.2615 398.986 17.6762 400.287 16.3349C401.631 14.9818 403.214 13.8958 404.953 13.1333C408.725 11.6155 412.927 11.6155 416.7 13.1333C418.439 13.8958 420.021 14.9818 421.365 16.3349C422.683 17.6736 423.733 19.2586 424.456 21.002C425.177 22.8492 425.535 24.8213 425.51 26.8074C425.54 28.7756 425.182 30.73 424.456 32.5559C423.748 34.3243 422.697 35.9307 421.365 37.2799C420.032 38.6291 418.446 39.6937 416.7 40.4104C414.839 41.1993 412.843 41.6056 410.826 41.6056C408.809 41.6056 406.813 41.1993 404.953 40.4104ZM414.845 36.2555C416.025 35.7568 417.081 34.9986 417.936 34.0357C418.784 33.0865 419.451 31.9866 419.903 30.7915C420.364 29.5156 420.592 28.1658 420.578 26.8074C420.587 25.4495 420.359 24.1005 419.903 22.8233C419.438 21.6174 418.773 20.501 417.936 19.5222C417.063 18.5941 416.011 17.8579 414.845 17.3594C412.288 16.2971 409.42 16.2971 406.863 17.3594C405.697 17.8579 404.645 18.5941 403.772 19.5222C402.031 21.5397 401.073 24.1283 401.074 26.8074C401.051 28.1717 401.299 29.5268 401.805 30.7915C402.236 31.9973 402.905 33.1013 403.772 34.0357C404.627 34.9986 405.683 35.7568 406.863 36.2555C409.42 37.3178 412.288 37.3178 414.845 36.2555Z" fill="#1D3E6F"/>
<path d="M466.983 48.2079V41.0365H429.986V12.5785H434.805V36.5579H445.99V12.5785H450.824V36.5579H462.009V12.5785H466.843V36.5579H471.522V48.2257L466.983 48.2079Z" fill="#1D3E6F"/>
<path d="M480.384 12.5785V22.8234H489.714C491.304 22.7944 492.886 23.0646 494.379 23.6202C495.576 24.0706 496.667 24.7684 497.583 25.6692C498.403 26.4876 499.036 27.4785 499.438 28.5719C499.814 29.6304 500.005 30.7478 500 31.873C500.01 32.9986 499.819 34.1169 499.438 35.1741C499.038 36.2848 498.405 37.2945 497.583 38.1338C496.649 39.0533 495.54 39.7699 494.323 40.2397C492.83 40.7953 491.248 41.0655 489.658 41.0365H475.55V12.5785H480.384ZM489.489 36.597C491.288 36.597 492.693 36.1986 493.705 35.3449C494.188 34.9127 494.57 34.3767 494.822 33.7761C495.075 33.1755 495.193 32.5253 495.166 31.873C495.166 30.3932 494.66 29.2549 493.705 28.458C492.749 27.6612 491.344 27.2628 489.545 27.2628H480.384V36.597H489.489Z" fill="#1D3E6F"/>
<path d="M0 56.1822V65.9268H2.14439V58.0921H6.39419V56.1822H0Z" fill="#1D3E6F"/>
<path d="M7.77724 70H9.92163V64.621C10.1946 65.0108 10.6039 65.3616 11.1693 65.6539C11.7346 65.9657 12.3584 66.1216 13.0602 66.1216C13.7231 66.1216 14.3469 65.9852 14.9317 65.7124C15.4971 65.459 16.0039 65.0887 16.4133 64.621C16.8227 64.1727 17.1541 63.627 17.4075 63.0229C17.6415 62.4187 17.7584 61.7561 17.7584 61.0545C17.7584 60.3529 17.6415 59.6902 17.4075 59.0861C17.1541 58.4819 16.8227 57.9362 16.4133 57.4685C16.0039 57.0202 15.4971 56.6499 14.9317 56.3771C14.3469 56.1237 13.7231 55.9873 13.0602 55.9873C12.3584 55.9873 11.7346 56.1432 11.1693 56.4356C10.6039 56.7474 10.1946 57.0982 9.92163 57.488V56.1822H7.77724V70ZM12.6704 64.1727C12.2415 64.1727 11.8516 64.0948 11.4812 63.9194C11.1108 63.7635 10.8184 63.5491 10.5649 63.2567C10.3115 62.9839 10.0971 62.6526 9.96062 62.2823C9.82416 61.912 9.74618 61.5027 9.74618 61.0545C9.74618 60.6062 9.82416 60.197 9.96062 59.8267C10.0971 59.4564 10.3115 59.1251 10.5649 58.8327C10.8184 58.5599 11.1108 58.3455 11.4812 58.1701C11.8516 58.0142 12.2415 57.9362 12.6704 57.9362C13.0992 57.9362 13.4891 58.0142 13.8595 58.1701C14.2104 58.3455 14.5223 58.5599 14.7758 58.8327C15.0292 59.1251 15.2241 59.4564 15.3606 59.8267C15.4971 60.197 15.575 60.6062 15.575 61.0545C15.575 61.5027 15.4971 61.912 15.3606 62.2823C15.2241 62.6526 15.0292 62.9839 14.7758 63.2567C14.5223 63.5491 14.2104 63.7635 13.8595 63.9194C13.4891 64.0948 13.0992 64.1727 12.6704 64.1727Z" fill="#1D3E6F"/>
<path d="M23.5487 66.1216C24.2505 66.1216 24.8744 65.9657 25.4397 65.6539C25.9856 65.3616 26.3949 65.0108 26.6679 64.621V65.9268H28.8123V56.1822H26.6679V57.488C26.3949 57.0982 25.9856 56.7474 25.4397 56.4356C24.8744 56.1432 24.2505 55.9873 23.5487 55.9873C22.8859 55.9873 22.2621 56.1237 21.6968 56.3771C21.1119 56.6499 20.6051 57.0202 20.1957 57.4685C19.7863 57.9362 19.4549 58.4819 19.221 59.0861C18.9675 59.6902 18.8506 60.3529 18.8506 61.0545C18.8506 61.7561 18.9675 62.4187 19.221 63.0229C19.4549 63.627 19.7863 64.1727 20.1957 64.621C20.6051 65.0887 21.1119 65.459 21.6968 65.7124C22.2621 65.9852 22.8859 66.1216 23.5487 66.1216ZM23.9386 64.1727C23.5098 64.1727 23.1199 64.0948 22.769 63.9194C22.3986 63.7635 22.1061 63.5491 21.8527 63.2567C21.5993 62.9839 21.3849 62.6526 21.2484 62.2823C21.1119 61.912 21.0339 61.5027 21.0339 61.0545C21.0339 60.6062 21.1119 60.197 21.2484 59.8267C21.3849 59.4564 21.5993 59.1251 21.8527 58.8327C22.1061 58.5599 22.3986 58.3455 22.769 58.1701C23.1199 58.0142 23.5098 57.9362 23.9386 57.9362C24.3675 57.9362 24.7574 58.0142 25.1278 58.1701C25.4787 58.3455 25.7906 58.5599 26.044 58.8327C26.2975 59.1251 26.4924 59.4564 26.6289 59.8267C26.7653 60.197 26.8433 60.6062 26.8433 61.0545C26.8433 61.5027 26.7653 61.912 26.6289 62.2823C26.4924 62.6526 26.2975 62.9839 26.044 63.2567C25.7906 63.5491 25.4787 63.7635 25.1278 63.9194C24.7574 64.0948 24.3675 64.1727 23.9386 64.1727Z" fill="#1D3E6F"/>
<path d="M31.3275 56.1822V65.9268H33.4719V61.951H38.1701V65.9268H40.3145V56.1822H38.1701V60.041H33.4719V56.1822H31.3275Z" fill="#1D3E6F"/>
<path d="M44.6301 58.0921V65.9268H46.7745V58.0921H49.8351V56.1822H41.7059V58.0921H44.6301Z" fill="#1D3E6F"/>
<path d="M55.6473 66.1216C56.3686 66.1216 57.0314 65.9852 57.6553 65.7319C58.2791 65.4785 58.8249 65.1082 59.2928 64.6405C59.7412 64.1922 60.1116 63.6465 60.365 63.0229C60.6184 62.4187 60.7549 61.7561 60.7549 61.0545C60.7549 60.3529 60.6184 59.6902 60.365 59.0666C60.1116 58.4624 59.7412 57.9167 59.2928 57.449C58.8249 57.0007 58.2791 56.6305 57.6553 56.3771C57.0314 56.1237 56.3686 55.9873 55.6473 55.9873C54.926 55.9873 54.2437 56.1237 53.6394 56.3771C53.0156 56.6305 52.4697 57.0007 52.0214 57.449C51.5535 57.9167 51.1831 58.4624 50.9297 59.0666C50.6762 59.6902 50.5398 60.3529 50.5398 61.0545C50.5398 61.7561 50.6762 62.4187 50.9297 63.0229C51.1831 63.6465 51.5535 64.1922 52.0214 64.6405C52.4697 65.1082 53.0156 65.4785 53.6394 65.7319C54.2437 65.9852 54.926 66.1216 55.6473 66.1216ZM55.6473 64.1338C55.2185 64.1338 54.8286 64.0558 54.4582 63.8999C54.0878 63.744 53.7759 63.5296 53.5224 63.2373C53.269 62.9644 53.0546 62.6331 52.9181 62.2628C52.7816 61.8925 52.7037 61.4832 52.7037 61.0545C52.7037 60.6257 52.7816 60.2164 52.9181 59.8462C53.0546 59.4759 53.269 59.1445 53.5224 58.8522C53.7759 58.5794 54.0878 58.365 54.4582 58.2091C54.8286 58.0532 55.2185 57.9752 55.6473 57.9752C56.0762 57.9752 56.4661 58.0532 56.8365 58.2091C57.1874 58.365 57.4993 58.5794 57.7527 58.8522C58.0062 59.1445 58.2206 59.4759 58.3571 59.8462C58.4935 60.2164 58.5715 60.6257 58.5715 61.0545C58.5715 61.4832 58.4935 61.8925 58.3571 62.2628C58.2206 62.6331 58.0062 62.9644 57.7527 63.2373C57.4993 63.5296 57.1874 63.744 56.8365 63.8999C56.4661 64.0558 56.0762 64.1338 55.6473 64.1338Z" fill="#1D3E6F"/>
<path d="M62.5217 56.1822V65.9268H67.5318C68.1751 65.9268 68.7015 65.8488 69.1499 65.6734C69.5982 65.5175 69.9491 65.3031 70.2416 65.0303C70.534 64.7769 70.7289 64.4651 70.8654 64.1143C71.0018 63.783 71.0603 63.4127 71.0603 63.0424C71.0603 62.5551 70.9434 62.1264 70.6899 61.7171C70.4365 61.3078 70.0856 60.996 69.6372 60.7427C70.1636 60.2554 70.4365 59.6708 70.4365 58.9691C70.4365 58.5989 70.3585 58.2286 70.2221 57.8972C70.0856 57.5659 69.8712 57.2541 69.5787 57.0007C69.2863 56.7474 68.9354 56.5525 68.5065 56.3966C68.0582 56.2602 67.5513 56.1822 66.9665 56.1822H62.5217ZM67.5123 64.1143H64.6661V61.6781H67.5123C67.9217 61.6781 68.2726 61.7756 68.526 61.99C68.7795 62.2043 68.9159 62.4967 68.9159 62.9059C68.9159 63.2957 68.7795 63.5881 68.526 63.8024C68.2726 64.0168 67.9217 64.1143 67.5123 64.1143ZM67.0445 60.119H64.6661V57.9167H67.0445C67.3369 57.9167 67.6293 57.9947 67.9022 58.1506C68.1556 58.3065 68.2921 58.5989 68.2921 59.0081C68.2921 59.4174 68.1556 59.7097 67.9022 59.8656C67.6293 60.041 67.3369 60.119 67.0445 60.119Z" fill="#1D3E6F"/>
<path d="M76.8464 66.1216C77.5482 66.1216 78.172 65.9657 78.7374 65.6539C79.2832 65.3616 79.6926 65.0108 79.9655 64.621V65.9268H82.1099V56.1822H79.9655V57.488C79.6926 57.0982 79.2832 56.7474 78.7374 56.4356C78.172 56.1432 77.5482 55.9873 76.8464 55.9873C76.1836 55.9873 75.5597 56.1237 74.9944 56.3771C74.4096 56.6499 73.9027 57.0202 73.4933 57.4685C73.0839 57.9362 72.7525 58.4819 72.5186 59.0861C72.2652 59.6902 72.1482 60.3529 72.1482 61.0545C72.1482 61.7561 72.2652 62.4187 72.5186 63.0229C72.7525 63.627 73.0839 64.1727 73.4933 64.621C73.9027 65.0887 74.4096 65.459 74.9944 65.7124C75.5597 65.9852 76.1836 66.1216 76.8464 66.1216ZM77.2363 64.1727C76.8074 64.1727 76.4175 64.0948 76.0666 63.9194C75.6962 63.7635 75.4038 63.5491 75.1504 63.2567C74.8969 62.9839 74.6825 62.6526 74.546 62.2823C74.4096 61.912 74.3316 61.5027 74.3316 61.0545C74.3316 60.6062 74.4096 60.197 74.546 59.8267C74.6825 59.4564 74.8969 59.1251 75.1504 58.8327C75.4038 58.5599 75.6962 58.3455 76.0666 58.1701C76.4175 58.0142 76.8074 57.9362 77.2363 57.9362C77.6651 57.9362 78.055 58.0142 78.4254 58.1701C78.7763 58.3455 79.0882 58.5599 79.3417 58.8327C79.5951 59.1251 79.79 59.4564 79.9265 59.8267C80.063 60.197 80.141 60.6062 80.141 61.0545C80.141 61.5027 80.063 61.912 79.9265 62.2823C79.79 62.6526 79.5951 62.9839 79.3417 63.2567C79.0882 63.5491 78.7763 63.7635 78.4254 63.9194C78.055 64.0948 77.6651 64.1727 77.2363 64.1727Z" fill="#1D3E6F"/>
<path d="M86.6916 62.1848L83.0461 65.9268H85.5804L88.8749 62.5941H89.9666V65.9268H92.111V56.1822H88.1731C87.5883 56.1822 87.0815 56.2602 86.6331 56.4161C86.1847 56.5915 85.8143 56.8059 85.5219 57.0982C85.2295 57.3905 84.9955 57.7218 84.8396 58.1116C84.6836 58.5014 84.6057 58.9107 84.6057 59.3589C84.6057 60.0216 84.7811 60.6062 85.1515 61.0935C85.5219 61.5807 86.0287 61.951 86.6916 62.1848ZM89.9666 60.8011H88.2901C87.8027 60.8011 87.4129 60.6842 87.1204 60.4503C86.828 60.2164 86.6721 59.8851 86.6721 59.4369C86.6721 58.9886 86.8085 58.6183 87.0814 58.365C87.3544 58.1116 87.7638 57.9947 88.2901 57.9947H89.9666V60.8011Z" fill="#1D3E6F"/>
<path d="M98.8089 56.1822V65.9268H100.953V58.0921H105.457V65.9268H107.601V56.1822H98.8089Z" fill="#1D3E6F"/>
<path d="M110.089 66.0827C110.479 66.0827 110.849 66.0242 111.22 65.8878C111.571 65.7514 111.883 65.5565 112.155 65.2641C112.409 64.9913 112.623 64.6405 112.779 64.2117C112.935 63.8024 113.013 63.2957 113.013 62.711V58.0921H116.659V65.9268H118.803V56.1822H110.869V62.3797C110.869 63.1008 110.771 63.5686 110.557 63.8219C110.342 64.0753 110.05 64.1922 109.68 64.1922C109.582 64.1922 109.465 64.1922 109.368 64.1727C109.251 64.1727 109.134 64.1727 109.036 64.1532V66.0047C109.29 66.0632 109.641 66.0827 110.089 66.0827Z" fill="#1D3E6F"/>
<path d="M125.699 66.1216C126.42 66.1216 127.083 65.9852 127.707 65.7319C128.331 65.4785 128.876 65.1082 129.344 64.6405C129.793 64.1922 130.163 63.6465 130.416 63.0229C130.67 62.4187 130.806 61.7561 130.806 61.0545C130.806 60.3529 130.67 59.6902 130.416 59.0666C130.163 58.4624 129.793 57.9167 129.344 57.449C128.876 57.0007 128.331 56.6305 127.707 56.3771C127.083 56.1237 126.42 55.9873 125.699 55.9873C124.978 55.9873 124.295 56.1237 123.691 56.3771C123.067 56.6305 122.521 57.0007 122.073 57.449C121.605 57.9167 121.235 58.4624 120.981 59.0666C120.728 59.6902 120.591 60.3529 120.591 61.0545C120.591 61.7561 120.728 62.4187 120.981 63.0229C121.235 63.6465 121.605 64.1922 122.073 64.6405C122.521 65.1082 123.067 65.4785 123.691 65.7319C124.295 65.9852 124.978 66.1216 125.699 66.1216ZM125.699 64.1338C125.27 64.1338 124.88 64.0558 124.51 63.8999C124.139 63.744 123.827 63.5296 123.574 63.2373C123.32 62.9644 123.106 62.6331 122.97 62.2628C122.833 61.8925 122.755 61.4832 122.755 61.0545C122.755 60.6257 122.833 60.2164 122.97 59.8462C123.106 59.4759 123.32 59.1445 123.574 58.8522C123.827 58.5794 124.139 58.365 124.51 58.2091C124.88 58.0532 125.27 57.9752 125.699 57.9752C126.128 57.9752 126.518 58.0532 126.888 58.2091C127.239 58.365 127.551 58.5794 127.804 58.8522C128.058 59.1445 128.272 59.4759 128.409 59.8462C128.545 60.2164 128.623 60.6257 128.623 61.0545C128.623 61.4832 128.545 61.8925 128.409 62.2628C128.272 62.6331 128.058 62.9644 127.804 63.2373C127.551 63.5296 127.239 63.744 126.888 63.8999C126.518 64.0558 126.128 64.1338 125.699 64.1338Z" fill="#1D3E6F"/>
<path d="M147.331 68.3629V64.0168H145.771V56.1822H143.627V64.0168H140.254V56.1822H138.11V64.0168H134.718V56.1822H132.573V65.9268H145.362V68.3629H147.331Z" fill="#1D3E6F"/>
<path d="M153.009 66.1216C153.711 66.1216 154.335 65.9657 154.9 65.6539C155.446 65.3616 155.855 65.0108 156.128 64.621V65.9268H158.272V56.1822H156.128V57.488C155.855 57.0982 155.446 56.7474 154.9 56.4356C154.335 56.1432 153.711 55.9873 153.009 55.9873C152.346 55.9873 151.722 56.1237 151.157 56.3771C150.572 56.6499 150.065 57.0202 149.656 57.4685C149.246 57.9362 148.915 58.4819 148.681 59.0861C148.428 59.6902 148.311 60.3529 148.311 61.0545C148.311 61.7561 148.428 62.4187 148.681 63.0229C148.915 63.627 149.246 64.1727 149.656 64.621C150.065 65.0887 150.572 65.459 151.157 65.7124C151.722 65.9852 152.346 66.1216 153.009 66.1216ZM153.399 64.1727C152.97 64.1727 152.58 64.0948 152.229 63.9194C151.859 63.7635 151.566 63.5491 151.313 63.2567C151.059 62.9839 150.845 62.6526 150.709 62.2823C150.572 61.912 150.494 61.5027 150.494 61.0545C150.494 60.6062 150.572 60.197 150.709 59.8267C150.845 59.4564 151.059 59.1251 151.313 58.8327C151.566 58.5599 151.859 58.3455 152.229 58.1701C152.58 58.0142 152.97 57.9362 153.399 57.9362C153.828 57.9362 154.218 58.0142 154.588 58.1701C154.939 58.3455 155.251 58.5599 155.504 58.8327C155.758 59.1251 155.953 59.4564 156.089 59.8267C156.226 60.197 156.303 60.6062 156.303 61.0545C156.303 61.5027 156.226 61.912 156.089 62.2823C155.953 62.6526 155.758 62.9839 155.504 63.2567C155.251 63.5491 154.939 63.7635 154.588 63.9194C154.218 64.0948 153.828 64.1727 153.399 64.1727Z" fill="#1D3E6F"/>
<path d="M160.203 64.0168H159.949V68.3629H161.918V65.9268H169.19V68.3629H171.139V64.0168H169.619V56.1822H161.587V61.1519C161.587 61.7171 161.548 62.1848 161.489 62.5551C161.411 62.9254 161.314 63.2178 161.178 63.4321C161.041 63.6465 160.905 63.8024 160.749 63.8804C160.573 63.9778 160.398 64.0168 160.203 64.0168ZM163.731 61.3663V58.0921H167.474V64.0168H163.166C163.263 63.8804 163.341 63.7245 163.4 63.5491C163.458 63.3932 163.517 63.2178 163.575 63.0034C163.634 62.789 163.673 62.5551 163.692 62.2823C163.712 62.0289 163.731 61.7171 163.731 61.3663Z" fill="#1D3E6F"/>
<path d="M174.974 61.7756L179.302 65.9268H182.128L177.001 60.9765L181.426 56.1822H178.814L174.974 60.3529V56.1822H172.829V65.9268H174.974V61.7756Z" fill="#1D3E6F"/>
<path d="M186.906 66.1216C187.608 66.1216 188.232 65.9657 188.797 65.6539C189.343 65.3616 189.753 65.0108 190.026 64.621V65.9268H192.17V56.1822H190.026V57.488C189.753 57.0982 189.343 56.7474 188.797 56.4356C188.232 56.1432 187.608 55.9873 186.906 55.9873C186.244 55.9873 185.62 56.1237 185.055 56.3771C184.47 56.6499 183.963 57.0202 183.553 57.4685C183.144 57.9362 182.813 58.4819 182.579 59.0861C182.325 59.6902 182.208 60.3529 182.208 61.0545C182.208 61.7561 182.325 62.4187 182.579 63.0229C182.813 63.627 183.144 64.1727 183.553 64.621C183.963 65.0887 184.47 65.459 185.055 65.7124C185.62 65.9852 186.244 66.1216 186.906 66.1216ZM187.296 64.1727C186.867 64.1727 186.478 64.0948 186.127 63.9194C185.756 63.7635 185.464 63.5491 185.21 63.2567C184.957 62.9839 184.743 62.6526 184.606 62.2823C184.47 61.912 184.392 61.5027 184.392 61.0545C184.392 60.6062 184.47 60.197 184.606 59.8267C184.743 59.4564 184.957 59.1251 185.21 58.8327C185.464 58.5599 185.756 58.3455 186.127 58.1701C186.478 58.0142 186.867 57.9362 187.296 57.9362C187.725 57.9362 188.115 58.0142 188.486 58.1701C188.836 58.3455 189.148 58.5599 189.402 58.8327C189.655 59.1251 189.85 59.4564 189.987 59.8267C190.123 60.197 190.201 60.6062 190.201 61.0545C190.201 61.5027 190.123 61.912 189.987 62.2823C189.85 62.6526 189.655 62.9839 189.402 63.2567C189.148 63.5491 188.836 63.7635 188.486 63.9194C188.115 64.0948 187.725 64.1727 187.296 64.1727Z" fill="#1D3E6F"/>
</svg>
