<svg width="238" height="23" viewBox="0 0 238 23" fill="none" xmlns="http://www.w3.org/2000/svg">
<path d="M10.4809 1.14857L18.7846 19.573H16.1845L13.6763 13.9541H5.10499L2.5968 19.573H0L8.30208 1.14857H10.4809ZM12.6546 11.6671L9.39231 4.372L6.12498 11.6671H12.6546Z" fill="#1D3E6F"/>
<path d="M22.8702 19.2727C22.0322 18.9206 21.2826 18.3827 20.6764 17.6983C20.0498 17.0017 19.5756 16.1783 19.2851 15.2824C18.9546 14.2763 18.7918 13.2213 18.8036 12.1608V10.7764C18.8036 8.69816 18.8588 7.44951 19.1263 6.19576C19.3621 5.08453 19.6463 4.19893 20.2617 3.3303C20.8285 2.52853 21.5792 1.87873 22.4488 1.43697C24.4554 0.354577 27.5321 0.191709 29.1674 0.0797376L31.1555 0V2.24283H30.8546C28.8815 2.24283 23.8316 2.42266 22.3485 4.25153C21.9425 4.71615 21.6514 5.27209 21.499 5.87342C21.2882 6.68654 21.1649 7.52046 21.1312 8.36055C21.6957 7.5509 22.475 6.92028 23.3785 6.54186C24.2267 6.18519 25.1357 6.00074 26.0539 5.99896C27.0166 5.98764 27.9718 6.17224 28.8631 6.54186C29.6562 6.86921 30.3687 7.36965 30.9499 8.00767C31.5204 8.63418 31.9736 9.36084 32.2876 10.1521C32.5875 10.9778 32.7415 11.8508 32.7424 12.7308C32.7544 13.6781 32.584 14.6186 32.2408 15.4996C31.9131 16.3414 31.4218 17.1076 30.796 17.7526C30.1707 18.4153 29.4138 18.9357 28.5755 19.2795C26.7498 20.0395 24.7025 20.0395 22.8769 19.2795L22.8702 19.2727ZM27.6056 17.2911C28.1592 17.0631 28.6603 16.7211 29.0771 16.2868C29.4951 15.8299 29.8222 15.2953 30.0402 14.7124C30.2857 14.082 30.4062 13.4086 30.3947 12.7308C30.4052 12.0912 30.2868 11.4562 30.0469 10.8646C29.8309 10.3193 29.5129 9.82157 29.1105 9.39883C28.684 8.99013 28.1846 8.66769 27.6391 8.44877C27.0507 8.22728 26.4273 8.11688 25.7997 8.12303C25.1496 8.10909 24.5033 8.22914 23.9002 8.47592C23.3533 8.70442 22.854 9.03601 22.4287 9.45312C22.0176 9.86872 21.6984 10.3684 21.4924 10.9189C21.2541 11.4944 21.1357 12.1136 21.1445 12.7376C21.1286 13.415 21.2445 14.089 21.4857 14.7209C21.6775 15.3028 21.9924 15.8351 22.4083 16.2806C22.8243 16.726 23.3312 17.0738 23.8935 17.2996C24.4747 17.552 25.1006 17.6813 25.7329 17.6796C26.3788 17.6804 27.0182 17.5483 27.6123 17.2911H27.6056Z" fill="#1D3E6F"/>
<path d="M38.2281 19.2727C37.3977 18.9285 36.6497 18.4079 36.0342 17.7458C35.4148 17.1061 34.9241 16.3501 34.5895 15.52C33.876 13.7639 33.876 11.7928 34.5895 10.0367C34.9302 9.20185 35.42 8.43802 36.0342 7.78373C36.664 7.1389 37.4084 6.62083 38.2281 6.25684C39.1207 5.89226 40.075 5.70785 41.0372 5.71395C41.8456 5.71439 42.6489 5.8426 43.4183 6.09398C44.1264 6.333 44.7941 6.68089 45.3981 7.12547C45.9857 7.56884 46.4946 8.11042 46.903 8.72701C47.3047 9.35226 47.603 10.0399 47.7859 10.7629H45.3179C45.027 9.90475 44.4741 9.16308 43.7394 8.64557C42.9383 8.11101 41.9958 7.83645 41.0372 7.85838C40.3852 7.85313 39.7389 7.98243 39.1377 8.23841C38.5826 8.47617 38.0818 8.82728 37.6662 9.2699C37.2587 9.72981 36.9409 10.2641 36.7298 10.8443C36.2661 12.0861 36.2661 13.4571 36.7298 14.6988C36.9349 15.2739 37.2535 15.8004 37.6662 16.2461C38.0733 16.7053 38.5759 17.0669 39.1377 17.3047C39.7389 17.5607 40.3852 17.69 41.0372 17.6847C42.0002 17.7107 42.9465 17.4255 43.7394 16.8704C44.4784 16.3694 45.0334 15.6346 45.3179 14.7803H47.7876C47.6046 15.5032 47.3064 16.1909 46.9047 16.8161C46.5028 17.4304 45.9926 17.9641 45.3998 18.3905C44.8043 18.8618 44.1343 19.2272 43.4183 19.4712C42.6489 19.7226 41.8456 19.8508 41.0372 19.8512C40.0713 19.859 39.1145 19.662 38.2281 19.2727Z" fill="#1D3E6F"/>
<path d="M53.0576 19.2727C52.2268 18.9357 51.4728 18.4294 50.8424 17.7851C50.212 17.1408 49.7185 16.3722 49.3924 15.5267C49.0357 14.6582 48.8537 13.726 48.8573 12.7851C48.8564 11.8357 49.0381 10.8952 49.3924 10.0164C49.7269 9.18626 50.2176 8.43022 50.8371 7.79049C51.4767 7.14518 52.2299 6.62726 53.0576 6.26361C54.8532 5.53973 56.8536 5.53973 58.6492 6.26361C59.477 6.62726 60.2302 7.14518 60.8698 7.79049C61.4975 8.42898 61.9972 9.18488 62.3413 10.0164C62.6845 10.8973 62.8549 11.8379 62.8429 12.7851C62.8575 13.7238 62.6869 14.6559 62.3413 15.5267C62.0048 16.3698 61.5049 17.1357 60.8713 17.7792C60.2377 18.4226 59.4832 18.9305 58.6526 19.2727C57.7671 19.649 56.8168 19.8427 55.8568 19.8427C54.8968 19.8427 53.9464 19.649 53.061 19.2727H53.0576ZM57.7663 17.2911C58.3281 17.0533 58.8308 16.6917 59.2378 16.2325C59.6414 15.7798 59.9589 15.2552 60.1742 14.6852C60.3933 14.0767 60.5021 13.433 60.4953 12.7851C60.4998 12.1375 60.391 11.4941 60.1742 10.885C59.9528 10.3099 59.6361 9.77741 59.2378 9.31059C58.8223 8.86798 58.3214 8.51687 57.7663 8.2791C56.5509 7.77177 55.1874 7.76995 53.9706 8.27401C53.4156 8.51178 52.9147 8.86289 52.4992 9.3055C51.6706 10.2677 51.2143 11.5023 51.215 12.78C51.2037 13.4307 51.3219 14.077 51.5628 14.6801C51.7678 15.2552 52.0865 15.7817 52.4992 16.2274C52.9062 16.6866 53.4088 17.0482 53.9706 17.286C55.1878 17.7927 56.5526 17.7927 57.7697 17.286L57.7663 17.2911Z" fill="#1D3E6F"/>
<path d="M63.6402 19.7341C63.4605 19.7338 63.2813 19.7156 63.1051 19.6798V17.5897C63.2459 17.6211 63.3892 17.6393 63.5332 17.644H63.9613C64.1922 17.6534 64.422 17.6065 64.6315 17.5073C64.8409 17.4082 65.0239 17.2596 65.1652 17.074C65.4595 16.7211 65.5932 16.0153 65.5932 14.9838V5.99215H75.9203V19.5645H73.6194V8.14337H67.8941V15.4724C67.8941 16.9111 67.5463 17.9969 66.8774 18.6958C66.5433 19.0409 66.143 19.3128 65.7012 19.4949C65.2595 19.677 64.7857 19.7653 64.3091 19.7545C64.0859 19.7618 63.8625 19.755 63.6402 19.7341Z" fill="#1D3E6F"/>
<path d="M88.0293 19.3813C87.2763 19.0976 86.592 18.6532 86.0227 18.0783C85.4257 17.5299 84.9435 16.8653 84.6048 16.1239C84.2242 15.3668 83.9796 14.547 83.8824 13.7029H81.3141V19.5662H79.0132V5.99386H81.3141V11.6128H83.9025C84.0259 10.79 84.2788 9.99261 84.6516 9.25122C85.0196 8.55975 85.5014 7.9372 86.0763 7.41047C86.6622 6.87058 87.3429 6.44703 88.0828 6.16182C88.86 5.86243 89.6862 5.71562 90.5174 5.7292C91.4456 5.72305 92.3653 5.90773 93.2212 6.2721C94.0245 6.62206 94.7519 7.1294 95.3616 7.76505C95.9504 8.42864 96.4211 9.19098 96.7528 10.0181C97.0768 10.9039 97.24 11.8419 97.2343 12.7868C97.2424 13.723 97.0791 14.6527 96.7528 15.5284C96.4331 16.3597 95.9611 17.1219 95.3616 17.7746C94.7609 18.4295 94.0318 18.9496 93.2212 19.3015C92.3653 19.6659 91.4456 19.8506 90.5174 19.8444C89.6671 19.8455 88.8238 19.6885 88.0293 19.3813ZM92.2849 17.2657C92.8112 17.0193 93.2836 16.6686 93.6744 16.2342C94.0622 15.7792 94.3622 15.2544 94.5589 14.6869C94.778 14.0784 94.8868 13.4346 94.88 12.7868C94.8845 12.1303 94.7758 11.4781 94.5589 10.8595C94.3566 10.3009 94.057 9.78374 93.6744 9.33265C93.2836 8.89827 92.8112 8.54756 92.2849 8.30116C91.7282 8.05508 91.1282 7.92582 90.521 7.92115C89.9138 7.91649 89.3119 8.03652 88.7516 8.27401C88.2287 8.51369 87.7632 8.86561 87.3872 9.30551C87.0005 9.76097 86.7011 10.2857 86.5043 10.8528C86.2874 11.4713 86.1788 12.1235 86.1833 12.78C86.1765 13.4279 86.2852 14.0716 86.5043 14.6801C86.7011 15.2472 87.0005 15.7719 87.3872 16.2274C87.7625 16.6697 88.228 17.024 88.7516 17.2657C89.3078 17.5166 89.9096 17.6463 90.5182 17.6463C91.1269 17.6463 91.7287 17.5166 92.2849 17.2657Z" fill="#1D3E6F"/>
<path d="M97.548 8.14341V5.99898H109.547V8.14341H104.604V19.5713H102.298V8.14341H97.548Z" fill="#1D3E6F"/>
<path d="M133.544 11.4975V13.8336H110.335V11.4975H133.544Z" fill="#1D3E6F"/>
<path d="M139.379 3.53561V19.5713H136.971V1.14857H151.733V19.573H149.298V3.53561H139.379Z" fill="#1D3E6F"/>
<path d="M158.227 19.2727C157.396 18.9357 156.642 18.4294 156.011 17.7851C155.381 17.1408 154.887 16.3722 154.561 15.5267C154.205 14.6582 154.023 13.726 154.026 12.7851C154.025 11.8357 154.207 10.8952 154.561 10.0164C154.896 9.18626 155.387 8.43022 156.006 7.79049C156.646 7.14518 157.399 6.62726 158.227 6.26361C160.022 5.53973 162.023 5.53973 163.818 6.26361C164.646 6.62726 165.399 7.14518 166.039 7.79049C166.667 8.42898 167.166 9.18488 167.51 10.0164C167.854 10.8973 168.024 11.8379 168.012 12.7851C168.026 13.7238 167.856 14.6559 167.51 15.5267C167.174 16.3696 166.674 17.1355 166.041 17.7789C165.408 18.4224 164.654 18.9303 163.823 19.2727C162.938 19.649 161.987 19.8427 161.027 19.8427C160.068 19.8427 159.117 19.649 158.232 19.2727H158.227ZM162.935 17.2911C163.497 17.0533 164 16.6917 164.407 16.2325C164.81 15.7798 165.128 15.2552 165.343 14.6852C165.562 14.0767 165.671 13.433 165.664 12.7851C165.669 12.1375 165.56 11.4941 165.343 10.885C165.122 10.3099 164.805 9.77741 164.407 9.31059C163.991 8.86798 163.49 8.51687 162.935 8.2791C161.718 7.77248 160.353 7.77248 159.136 8.2791C158.581 8.51687 158.08 8.86798 157.665 9.31059C156.836 10.2728 156.38 11.5074 156.381 12.7851C156.369 13.4358 156.488 14.0821 156.728 14.6852C156.934 15.2603 157.252 15.7868 157.665 16.2325C158.072 16.6917 158.575 17.0533 159.136 17.2911C160.353 17.7977 161.718 17.7977 162.935 17.2911Z" fill="#1D3E6F"/>
<path d="M178.287 16.3716L183.586 5.99898H186.37V19.5713H184.066V9.71949L179.096 19.4067H177.471L172.508 9.73645V19.5764H170.207V6.00407H172.986L178.287 16.3716Z" fill="#1D3E6F"/>
<path d="M192.757 19.2727C191.927 18.9357 191.173 18.4294 190.542 17.7851C189.912 17.1408 189.418 16.3722 189.092 15.5267C188.735 14.6582 188.553 13.726 188.557 12.7851C188.556 11.8357 188.738 10.8952 189.092 10.0164C189.427 9.18626 189.917 8.43022 190.537 7.79049C191.176 7.14518 191.93 6.62726 192.757 6.26361C194.553 5.53973 196.553 5.53973 198.349 6.26361C199.177 6.62726 199.93 7.14518 200.57 7.79049C201.197 8.42898 201.697 9.18488 202.041 10.0164C202.384 10.8973 202.555 11.8379 202.543 12.7851C202.557 13.7238 202.387 14.6559 202.041 15.5267C201.704 16.3701 201.204 17.1362 200.57 17.7797C199.935 18.4232 199.18 18.9309 198.349 19.2727C197.464 19.649 196.513 19.8427 195.553 19.8427C194.593 19.8427 193.643 19.649 192.757 19.2727ZM197.466 17.2911C198.028 17.0533 198.53 16.6917 198.938 16.2325C199.341 15.7798 199.659 15.2552 199.874 14.6852C200.093 14.0767 200.202 13.433 200.195 12.7851C200.199 12.1375 200.091 11.4941 199.874 10.885C199.653 10.3099 199.336 9.77741 198.938 9.31059C198.522 8.86798 198.021 8.51687 197.466 8.2791C196.249 7.77248 194.884 7.77248 193.667 8.2791C193.112 8.51687 192.611 8.86798 192.196 9.31059C191.367 10.2728 190.911 11.5074 190.911 12.7851C190.9 13.4358 191.018 14.0821 191.259 14.6852C191.464 15.2603 191.783 15.7868 192.196 16.2325C192.603 16.6917 193.105 17.0533 193.667 17.2911C194.884 17.7977 196.249 17.7977 197.466 17.2911Z" fill="#1D3E6F"/>
<path d="M222.284 22.9915V19.5713H204.673V5.99898H206.967V17.4354H212.291V5.99898H214.592V17.4354H219.916V5.99898H222.217V17.4354H224.444V23L222.284 22.9915Z" fill="#1D3E6F"/>
<path d="M228.663 5.99898V10.885H233.104C233.861 10.8712 234.614 11.0001 235.324 11.265C235.894 11.4798 236.413 11.8126 236.849 12.2422C237.24 12.6326 237.541 13.1052 237.732 13.6266C237.912 14.1315 238.002 14.6644 238 15.201C238.005 15.7379 237.914 16.2712 237.732 16.7754C237.542 17.3051 237.241 17.7867 236.849 18.1869C236.405 18.6255 235.877 18.9672 235.298 19.1913C234.587 19.4563 233.834 19.5851 233.077 19.5713H226.362V5.99898H228.663ZM232.997 17.454C233.853 17.454 234.522 17.264 235.003 16.8568C235.233 16.6507 235.415 16.3951 235.536 16.1086C235.656 15.8222 235.712 15.5121 235.699 15.201C235.699 14.4953 235.458 13.9524 235.003 13.5723C234.549 13.1923 233.88 13.0023 233.024 13.0023H228.663V17.454H232.997Z" fill="#1D3E6F"/>
</svg>
