<svg width="20" height="12" viewBox="0 0 20 12" fill="none" xmlns="http://www.w3.org/2000/svg">
<path fill-rule="evenodd" clip-rule="evenodd" d="M19.5411 0.784261C19.6801 0.332377 19.5411 0.000244141 18.8794 0.000244141H16.6914C16.135 0.000244141 15.8785 0.287127 15.7395 0.603416C15.7395 0.603416 14.6269 3.24738 13.0505 4.96472C12.5406 5.46185 12.3088 5.62 12.0306 5.62C11.8915 5.62 11.6902 5.46185 11.6902 5.00997V0.784261C11.6902 0.241879 11.5288 0.000244141 11.0651 0.000244141H7.62678C7.27904 0.000244141 7.06993 0.251934 7.06993 0.490521C7.06993 1.00457 7.85808 1.12325 7.93935 2.5694V5.71049C7.93935 6.39914 7.81182 6.52407 7.53363 6.52407C6.7919 6.52407 4.98757 3.86822 3.91748 0.82951C3.70774 0.238831 3.49738 0.000244141 2.93819 0.000244141H0.750175C0.125029 0.000244141 0 0.287127 0 0.603416C0 1.16835 0.741735 3.97045 3.45377 7.67648C5.26185 10.2072 7.80932 11.5792 10.1274 11.5792C11.5182 11.5792 11.6902 11.2745 11.6902 10.7496V8.83681C11.6902 8.22739 11.822 8.10581 12.2624 8.10581C12.5868 8.10581 13.1432 8.26396 14.4413 9.48416C15.925 10.9305 16.1696 11.5792 17.004 11.5792H19.192C19.8171 11.5792 20.1297 11.2745 19.9493 10.6731C19.7521 10.0738 19.0437 9.20429 18.1039 8.17361C17.594 7.58598 16.8289 6.9534 16.5972 6.63696C16.2725 6.23018 16.3654 6.04933 16.5972 5.68779C16.5972 5.68779 19.2629 2.02717 19.5411 0.784261Z" fill="#1D3E6F"/>
</svg>
